# xmcd CD database file
#
# Track frame offsets:
#	150
#	14815
#	29697
#	42477
#	66277
#	76402
#	93977
#	111220
#	174852
#	187400
#	201365
#	230957
#	238942
#	262342
#	279972
#	293045
#	321875
#
# Disc length: 4795 seconds
#
# Revision: 0
# Processed by: cddbd v1.5.1PL0 Copyright (c) Steve Scherf et al.
# Submitted via: CDex 1.51
#
DISCID=0e12b911
DTITLE=DMBQ - Hercules Hits
DYEAR=2004
DGENRE=Rock
TTITLE0=Mana Song
TTITLE1=Altered Rock
TTITLE2=Milk and Sugar
TTITLE3=Magical Relation
TTITLE4=Ohh! Baby
TTITLE5=Turtledove
TTITLE6=Smoker
TTITLE7=Small Hours
TTITLE8=Shoot me
TTITLE9=Falling Down
TTITLE10=Halation
TTITLE11=The Fever
TTITLE12=Migrate to MidNight
TTITLE13=Tell me
TTITLE14=Boom-run  Rock
TTITLE15=Kuchibue-no Ballad
TTITLE16=a
EXTD=YEAR: 2004
EXTT0=
EXTT1=
EXTT2=
EXTT3=
EXTT4=
EXTT5=
EXTT6=
EXTT7=
EXTT8=
EXTT9=
EXTT10=
EXTT11=
EXTT12=
EXTT13=
EXTT14=
EXTT15=
EXTT16=
PLAYORDER=
